<svg width="355" height="355" viewBox="0 0 355 355" fill="none" xmlns="http://www.w3.org/2000/svg">
<g id="confirmStar">
<rect width="355" height="355" fill="white"/>
<g id="confirmed">
<path id="Star" d="M167.961 36.7442C173.001 31.8687 180.999 31.8687 186.039 36.7442L209.515 59.4548C212.397 62.2428 216.404 63.5448 220.374 62.9832L252.716 58.4088C259.658 57.4267 266.129 62.1279 267.341 69.0345L272.984 101.207C273.677 105.156 276.154 108.565 279.696 110.444L308.549 125.753C314.743 129.04 317.215 136.646 314.135 142.946L299.791 172.291C298.03 175.893 298.03 180.107 299.791 183.709L314.135 213.054C317.215 219.354 314.743 226.96 308.549 230.247L279.696 245.556C276.154 247.435 273.677 250.844 272.984 254.793L267.341 286.965C266.129 293.872 259.658 298.573 252.716 297.591L220.374 293.017C216.404 292.455 212.397 293.757 209.515 296.545L186.039 319.256C180.999 324.131 173.001 324.131 167.961 319.256L144.485 296.545C141.603 293.757 137.596 292.455 133.626 293.017L101.284 297.591C94.3415 298.573 87.8709 293.872 86.6593 286.965L81.0159 254.793C80.3231 250.844 77.8465 247.435 74.3044 245.556L45.4509 230.247C39.2567 226.96 36.7851 219.354 39.8646 213.054L54.2092 183.709C55.9702 180.107 55.9702 175.893 54.2092 172.291L39.8646 142.946C36.7851 136.646 39.2567 129.04 45.4509 125.753L74.3044 110.444C77.8465 108.565 80.3231 105.156 81.0159 101.207L86.6593 69.0345C87.8709 62.1279 94.3415 57.4267 101.284 58.4088L133.626 62.9832C137.596 63.5448 141.603 62.2428 144.485 59.4548L167.961 36.7442Z" fill="#449955"/>
<g id="check">
<path id="Line 1" d="M110 191L155.088 246.321" stroke="#F4CE14" stroke-width="25" stroke-linecap="round"/>
<path id="Line 2" d="M259 135L155.088 246.321" stroke="#F4CE14" stroke-width="25" stroke-linecap="round"/>
</g>
</g>
</g>
</svg>
